{
  "source": "C:\\Users\\Peter\\Desktop\\stuff\\MIUN\\quantitative_research\\video_compression\\videos\\BVI-HD\\BVI-HD_CDVL_videos\\ORIG\\Toys_1920x1080_30fps.mp4",
  "output": "C:\\Users\\Peter\\Desktop\\stuff\\MIUN\\quantitative_research\\video_compression\\compressed_videos\\BVI-HD\\av1\\4\\Toys_1920x1080_30fps_av1.mkv",
  "codec": "av1",
  "ok": "Input #0, mov,mp4,m4a,3gp,3g2,mj2, from 'C:\\Users\\Peter\\Desktop\\stuff\\MIUN\\quantitative_research\\video_compression\\videos\\BVI-HD\\BVI-HD_CDVL_videos\\ORIG\\Toys_1920x1080_30fps.mp4':\n  Metadata:\n    major_brand     : isom\n    minor_version   : 512\n    compatible_brands: isomiso2avc1mp41\n    encoder         : Lavf54.28.101\n  Duration: 00:00:05.00, start: 0.000000, bitrate: 270887 kb/s\n  Stream #0:0[0x1](und): Video: h264 (High 4:4:4 Predictive) (avc1 / 0x31637661), yuv420p(progressive), 1920x1080, 270883 kb/s, 30 fps, 30 tbr, 30 tbn (default)\n    Metadata:\n      handler_name    : VideoHandler\n      vendor_id       : [0][0][0][0]\n[out#0/matroska @ 000001e9508b0c00] Codec AVOption b:a (set bitrate (in bits/s)) has not been used for any stream. The most likely reason is either wrong type (e.g. a video option with no video streams) or that it is a private option of some decoder which was not actually used for any stream.\nStream mapping:\n  Stream #0:0 -> #0:0 (h264 (native) -> av1 (libsvtav1))\nPress [q] to stop, [?] for help\nSvt[info]: -------------------------------------------\nSvt[info]: SVT [version]:\tSVT-AV1 Encoder Lib v3.1.0-19-g6ecfe8ec\nSvt[info]: SVT [build]  :\tGCC 15.2.0\t 64 bit\nSvt[info]: LIB Build date: Aug 17 2025 11:37:13\nSvt[info]: -------------------------------------------\nSvt[info]: Level of Parallelism: 5\nSvt[info]: Number of PPCS 93\nSvt[info]: [asm level on system : up to avx2]\nSvt[info]: [asm level selected : up to avx2]\nSvt[info]: -------------------------------------------\nSvt[info]: SVT [config]: main profile\ttier (auto)\tlevel (auto)\nSvt[info]: SVT [config]: width / height / fps numerator / fps denominator \t\t: 1920 / 1080 / 30 / 1\nSvt[info]: SVT [config]: bit-depth / color format \t\t\t\t\t: 8 / YUV420\nSvt[info]: SVT [config]: preset / tune / pred struct \t\t\t\t\t: 4 / PSNR / random access\nSvt[info]: SVT [config]: gop size / mini-gop size / key-frame type \t\t\t: 161 / 16 / key frame\nSvt[info]: SVT [config]: BRC mode / target bitrate (kbps)\t\t\t\t: VBR / 4000 \nSvt[info]: SVT [config]: AQ mode / Variance Boost \t\t\t\t\t: 2 / 0\nSvt[info]: SVT [config]: sharpness / luminance-based QP bias \t\t\t\t: 0 / 0\nSvt[info]: SVT [config]: QP scale compress strength \t\t\t\t\t: 0\nSvt[info]: -------------------------------------------\nOutput #0, matroska, to 'C:\\Users\\Peter\\Desktop\\stuff\\MIUN\\quantitative_research\\video_compression\\compressed_videos\\BVI-HD\\av1\\4\\Toys_1920x1080_30fps_av1.mkv':\n  Metadata:\n    major_brand     : isom\n    minor_version   : 512\n    compatible_brands: isomiso2avc1mp41\n    encoder         : Lavf62.3.100\n  Stream #0:0(und): Video: av1 (AV01 / 0x31305641), yuv420p(tv, progressive), 1920x1080, q=2-31, 4000 kb/s, 30 fps, 1k tbn (default)\n    Metadata:\n      encoder         : Lavc62.11.100 libsvtav1\n      handler_name    : VideoHandler\n      vendor_id       : [0][0][0][0]\n    Side data:\n      cpb: bitrate max/min/avg: 0/0/4000000 buffer size: 4000000 vbv_delay: N/A\nframe=    0 fps=0.0 q=0.0 size=       0KiB time=N/A bitrate=N/A speed=N/A elapsed=0:00:01.09    \nframe=    0 fps=0.0 q=0.0 size=       0KiB time=N/A bitrate=N/A speed=N/A elapsed=0:00:01.65    \nframe=    0 fps=0.0 q=0.0 size=       0KiB time=N/A bitrate=N/A speed=N/A elapsed=0:00:02.25    \nframe=    0 fps=0.0 q=0.0 size=       0KiB time=N/A bitrate=N/A speed=N/A elapsed=0:00:02.82    \nframe=    0 fps=0.0 q=0.0 size=       0KiB time=N/A bitrate=N/A speed=N/A elapsed=0:00:03.39    \nframe=    0 fps=0.0 q=0.0 size=       0KiB time=N/A bitrate=N/A speed=N/A elapsed=0:00:03.93    \nframe=    1 fps=0.2 q=18.0 size=       1KiB time=00:00:00.00 bitrate=N/A speed=   0x elapsed=0:00:04.48    \nframe=    1 fps=0.2 q=18.0 size=       1KiB time=00:00:00.00 bitrate=N/A speed=   0x elapsed=0:00:05.04    \nframe=    1 fps=0.2 q=18.0 size=       1KiB time=00:00:00.00 bitrate=N/A speed=   0x elapsed=0:00:05.58    \nframe=    1 fps=0.2 q=18.0 size=       1KiB time=00:00:00.00 bitrate=N/A speed=   0x elapsed=0:00:06.16    \nframe=    1 fps=0.1 q=18.0 size=       1KiB time=00:00:00.00 bitrate=N/A speed=   0x elapsed=0:00:06.69    \nframe=    3 fps=0.4 q=36.0 size=       1KiB time=00:00:00.06 bitrate=  85.6kbits/s speed=0.0092x elapsed=0:00:07.24    \nframe=    6 fps=0.8 q=37.0 size=       1KiB time=00:00:00.16 bitrate=  34.2kbits/s speed=0.0213x elapsed=0:00:07.81    \nframe=    8 fps=1.0 q=34.0 size=       1KiB time=00:00:00.23 bitrate=  24.4kbits/s speed=0.0279x elapsed=0:00:08.37    \nframe=    9 fps=1.0 q=30.0 size=       1KiB time=00:00:00.26 bitrate=  21.4kbits/s speed=0.0297x elapsed=0:00:08.98    \nframe=   13 fps=1.4 q=31.0 size=       1KiB time=00:00:00.40 bitrate=  14.3kbits/s speed=0.042x elapsed=0:00:09.53    \nframe=   16 fps=1.6 q=36.0 size=       1KiB time=00:00:00.50 bitrate=  11.4kbits/s speed=0.0495x elapsed=0:00:10.09    \nframe=   18 fps=1.7 q=37.0 size=       1KiB time=00:00:00.56 bitrate=  10.1kbits/s speed=0.0533x elapsed=0:00:10.63    \nframe=   21 fps=1.9 q=34.0 size=       1KiB time=00:00:00.66 bitrate=   8.6kbits/s speed=0.0597x elapsed=0:00:11.17    \nframe=   23 fps=2.0 q=32.0 size=       1KiB time=00:00:00.73 bitrate=   7.8kbits/s speed=0.0627x elapsed=0:00:11.70    \nframe=   26 fps=2.1 q=37.0 size=       1KiB time=00:00:00.83 bitrate=   6.8kbits/s speed=0.0682x elapsed=0:00:12.21    \nframe=   30 fps=2.4 q=36.0 size=       1KiB time=00:00:00.96 bitrate=   5.9kbits/s speed=0.0759x elapsed=0:00:12.73    \nframe=   34 fps=2.6 q=37.0 size=       1KiB time=00:00:01.10 bitrate=   5.2kbits/s speed=0.0829x elapsed=0:00:13.26    \nframe=   39 fps=2.8 q=36.0 size=       1KiB time=00:00:01.26 bitrate=   4.5kbits/s speed=0.0919x elapsed=0:00:13.77    \nframe=   40 fps=2.8 q=37.0 size=       1KiB time=00:00:01.30 bitrate=   4.4kbits/s speed=0.0908x elapsed=0:00:14.31    \nframe=   45 fps=3.0 q=30.0 size=       1KiB time=00:00:01.46 bitrate=   3.9kbits/s speed=0.0989x elapsed=0:00:14.82    \nframe=   50 fps=3.3 q=36.0 size=       1KiB time=00:00:01.63 bitrate=   3.5kbits/s speed=0.106x elapsed=0:00:15.36    \nframe=   55 fps=3.5 q=35.0 size=       1KiB time=00:00:01.80 bitrate=   3.2kbits/s speed=0.113x elapsed=0:00:15.87    \nframe=   57 fps=3.5 q=29.0 size=       1KiB time=00:00:01.86 bitrate=   3.1kbits/s speed=0.114x elapsed=0:00:16.41    \nframe=   61 fps=3.6 q=30.0 size=       1KiB time=00:00:02.00 bitrate=   2.9kbits/s speed=0.118x elapsed=0:00:16.96    \nframe=   67 fps=3.8 q=35.0 size=       1KiB time=00:00:02.20 bitrate=   2.6kbits/s speed=0.126x elapsed=0:00:17.51    \nframe=   73 fps=4.0 q=29.0 size=       1KiB time=00:00:02.40 bitrate=   2.4kbits/s speed=0.133x elapsed=0:00:18.05    \nframe=   75 fps=4.0 q=34.0 size=       1KiB time=00:00:02.46 bitrate=   2.3kbits/s speed=0.133x elapsed=0:00:18.56    \nframe=   81 fps=4.2 q=20.0 size=       1KiB time=00:00:02.60 bitrate=   2.2kbits/s speed=0.136x elapsed=0:00:19.07    \nframe=   85 fps=4.3 q=33.0 size=       1KiB time=00:00:02.80 bitrate=   2.0kbits/s speed=0.143x elapsed=0:00:19.59    \nframe=   89 fps=4.4 q=29.0 size=       1KiB time=00:00:02.93 bitrate=   1.9kbits/s speed=0.146x elapsed=0:00:20.11    \nframe=   93 fps=4.5 q=30.0 size=       1KiB time=00:00:03.06 bitrate=   1.9kbits/s speed=0.149x elapsed=0:00:20.64    \nframe=   99 fps=4.7 q=35.0 size=       1KiB time=00:00:03.26 bitrate=   1.7kbits/s speed=0.154x elapsed=0:00:21.18    \nframe=  105 fps=4.8 q=29.0 size=       1KiB time=00:00:03.46 bitrate=   1.6kbits/s speed=0.16x elapsed=0:00:21.71    \nframe=  107 fps=4.8 q=34.0 size=       1KiB time=00:00:03.53 bitrate=   1.6kbits/s speed=0.159x elapsed=0:00:22.23    \nframe=  113 fps=5.0 q=21.0 size=       1KiB time=00:00:03.73 bitrate=   1.5kbits/s speed=0.164x elapsed=0:00:22.74    \nframe=  117 fps=5.0 q=34.0 size=       1KiB time=00:00:03.86 bitrate=   1.5kbits/s speed=0.166x elapsed=0:00:23.28    \nframe=  121 fps=5.1 q=30.0 size=       1KiB time=00:00:04.00 bitrate=   1.4kbits/s speed=0.168x elapsed=0:00:23.81    \nframe=  125 fps=5.1 q=31.0 size=       1KiB time=00:00:04.13 bitrate=   1.4kbits/s speed=0.17x elapsed=0:00:24.33    \nframe=  129 fps=5.2 q=22.0 size=       1KiB time=00:00:04.26 bitrate=   1.3kbits/s speed=0.172x elapsed=0:00:24.86    \nframe=  133 fps=5.2 q=36.0 size=       1KiB time=00:00:04.40 bitrate=   1.3kbits/s speed=0.173x elapsed=0:00:25.37    \nframe=  137 fps=5.3 q=33.0 size=       1KiB time=00:00:04.53 bitrate=   1.3kbits/s speed=0.175x elapsed=0:00:25.89    \n[out#0/matroska @ 000001e9508b0c00] video:2461KiB audio:0KiB subtitle:0KiB other streams:0KiB global headers:0KiB muxing overhead: 0.057738%\nframe=  150 fps=5.7 q=37.0 Lsize=    2462KiB time=00:00:04.96 bitrate=4061.4kbits/s speed=0.188x elapsed=0:00:26.40    \n",
  "seconds": 27.039385080337524,
  "probe_out": {}
}